<?xml version="1.0" encoding="utf-8"?>
<!-- Generator: Adobe Illustrator 17.0.0, SVG Export Plug-In . SVG Version: 6.00 Build 0)  -->
<!DOCTYPE svg PUBLIC "-//W3C//DTD SVG 1.1//EN" "http://www.w3.org/Graphics/SVG/1.1/DTD/svg11.dtd">
<svg version="1.1" id="Layer_1" xmlns="http://www.w3.org/2000/svg" xmlns:xlink="http://www.w3.org/1999/xlink" x="0px" y="0px"
	 width="114.038px" height="24.627px" viewBox="0 0 114.038 24.627" enable-background="new 0 0 114.038 24.627"
	 xml:space="preserve">
<g>
	<g>
		<path fill="#494949" d="M22.092,20.288h2.391v0.442h-1.934v1.331h1.725v0.442h-1.725v1.627h1.934v0.439h-2.391V20.288z"/>
		<path fill="#494949" d="M29.425,24.568h-0.543l-1.206-1.809l-1.203,1.809h-0.537l1.471-2.212l-1.373-2.068h0.549l1.101,1.656
			l1.098-1.656h0.537l-1.367,2.062L29.425,24.568z"/>
		<path fill="#494949" d="M34.463,23.523c-0.119,0.33-0.348,0.597-0.685,0.8c-0.337,0.203-0.719,0.304-1.145,0.304
			c-0.304,0-0.589-0.057-0.855-0.17c-0.266-0.113-0.492-0.268-0.68-0.463c-0.188-0.195-0.336-0.429-0.443-0.703
			c-0.107-0.274-0.161-0.566-0.161-0.876c0-0.306,0.054-0.594,0.161-0.864s0.255-0.501,0.443-0.695s0.415-0.347,0.68-0.46
			c0.266-0.112,0.551-0.169,0.855-0.169c0.404,0,0.77,0.092,1.097,0.276c0.327,0.184,0.555,0.426,0.682,0.727l-0.409,0.2
			c-0.113-0.231-0.293-0.415-0.54-0.552c-0.247-0.137-0.523-0.206-0.83-0.206c-0.485,0-0.884,0.165-1.195,0.495
			c-0.311,0.33-0.467,0.746-0.467,1.248c0,0.507,0.156,0.929,0.467,1.264s0.71,0.503,1.195,0.503c0.324,0,0.615-0.077,0.871-0.231
			s0.437-0.361,0.54-0.619L34.463,23.523z"/>
		<path fill="#494949" d="M36.215,20.288h2.391v0.442h-1.934v1.331h1.725v0.442h-1.725v1.627h1.934v0.439h-2.391V20.288z"/>
		<path fill="#494949" d="M40.438,20.288h0.457v3.841h2.164v0.439h-2.62V20.288z"/>
		<path fill="#494949" d="M44.777,20.288h0.457v3.841h2.164v0.439h-2.62V20.288z"/>
		<path fill="#494949" d="M49.116,20.288h0.457v4.28h-0.457V20.288z"/>
		<path fill="#494949" d="M51.549,20.288h0.433l2.397,3.435v-3.435h0.466v4.28h-0.43l-2.409-3.429v3.429h-0.457V20.288z"/>
		<path fill="#494949" d="M58.893,22.702v-0.439h1.609v1.615c-0.199,0.239-0.445,0.423-0.739,0.554s-0.622,0.195-0.986,0.195
			c-0.3,0-0.583-0.057-0.849-0.17c-0.266-0.113-0.493-0.268-0.683-0.464s-0.34-0.431-0.449-0.706s-0.164-0.567-0.164-0.877
			c0-0.414,0.093-0.787,0.279-1.121s0.443-0.593,0.77-0.78c0.327-0.187,0.693-0.281,1.097-0.281c0.4,0,0.763,0.093,1.089,0.278
			c0.326,0.185,0.552,0.427,0.678,0.725l-0.409,0.2c-0.111-0.231-0.29-0.415-0.536-0.552c-0.246-0.137-0.52-0.206-0.822-0.206
			c-0.32,0-0.607,0.074-0.861,0.221s-0.452,0.353-0.594,0.618s-0.213,0.564-0.213,0.898c0,0.251,0.042,0.486,0.125,0.706
			s0.198,0.408,0.345,0.564c0.146,0.156,0.323,0.279,0.53,0.369c0.207,0.09,0.43,0.134,0.669,0.134c0.505,0,0.925-0.151,1.259-0.454
			v-1.027H58.893z"/>
		<path fill="#494949" d="M67.876,20.288v0.442h-1.406v3.838h-0.46v-3.838h-1.406v-0.442H67.876z"/>
		<path fill="#494949" d="M69.545,20.288h2.391v0.442h-1.934v1.331h1.725v0.442h-1.725v1.627h1.934v0.439h-2.391V20.288z"/>
		<path fill="#494949" d="M77.307,23.523c-0.119,0.33-0.348,0.597-0.685,0.8c-0.337,0.203-0.719,0.304-1.145,0.304
			c-0.304,0-0.589-0.057-0.855-0.17c-0.266-0.113-0.492-0.268-0.68-0.463c-0.188-0.195-0.336-0.429-0.443-0.703
			c-0.107-0.274-0.161-0.566-0.161-0.876c0-0.306,0.054-0.594,0.161-0.864s0.255-0.501,0.443-0.695
			c0.188-0.194,0.415-0.347,0.68-0.46c0.266-0.112,0.551-0.169,0.855-0.169c0.404,0,0.77,0.092,1.097,0.276s0.555,0.426,0.682,0.727
			l-0.409,0.2c-0.113-0.231-0.293-0.415-0.54-0.552s-0.523-0.206-0.83-0.206c-0.485,0-0.884,0.165-1.195,0.495
			c-0.311,0.33-0.467,0.746-0.467,1.248c0,0.507,0.156,0.929,0.467,1.264s0.71,0.503,1.195,0.503c0.324,0,0.615-0.077,0.871-0.231
			s0.437-0.361,0.54-0.619L77.307,23.523z"/>
		<path fill="#494949" d="M81.924,20.288h0.466v4.28h-0.466v-2.006h-2.409v2.006h-0.457v-4.28h0.457v1.836h2.409V20.288z"/>
		<path fill="#494949" d="M84.356,20.288h0.433l2.397,3.435v-3.435h0.466v4.28h-0.43l-2.409-3.429v3.429h-0.457V20.288z"/>
		<path fill="#494949" d="M90.746,20.397c0.267-0.112,0.55-0.169,0.851-0.169c0.3,0,0.584,0.056,0.851,0.169
			c0.267,0.112,0.495,0.266,0.686,0.46c0.191,0.194,0.342,0.426,0.454,0.697c0.111,0.271,0.167,0.558,0.167,0.863
			c0,0.41-0.095,0.784-0.284,1.122s-0.449,0.604-0.779,0.798s-0.695,0.291-1.095,0.291c-0.4,0-0.765-0.097-1.095-0.291
			c-0.33-0.194-0.59-0.46-0.779-0.798c-0.189-0.338-0.284-0.712-0.284-1.122c0-0.304,0.056-0.592,0.167-0.863
			c0.111-0.271,0.263-0.503,0.454-0.697C90.251,20.662,90.479,20.509,90.746,20.397z M92.258,20.807
			c-0.208-0.09-0.428-0.134-0.661-0.134c-0.233,0-0.453,0.045-0.661,0.134c-0.208,0.09-0.386,0.211-0.536,0.366
			s-0.267,0.339-0.354,0.555c-0.087,0.216-0.13,0.445-0.13,0.688c0,0.326,0.074,0.625,0.221,0.895
			c0.147,0.271,0.35,0.484,0.607,0.639c0.258,0.155,0.542,0.233,0.852,0.233c0.31,0,0.594-0.078,0.852-0.233
			c0.258-0.155,0.46-0.368,0.607-0.639c0.147-0.271,0.221-0.569,0.221-0.895c0-0.243-0.043-0.472-0.13-0.688
			c-0.087-0.216-0.204-0.401-0.354-0.555S92.466,20.897,92.258,20.807z"/>
		<path fill="#494949" d="M95.545,20.288h0.457v3.841h2.164v0.439h-2.62V20.288z"/>
		<path fill="#494949" d="M100.714,20.397c0.267-0.112,0.55-0.169,0.851-0.169c0.3,0,0.584,0.056,0.851,0.169
			c0.267,0.112,0.495,0.266,0.686,0.46c0.191,0.194,0.342,0.426,0.454,0.697c0.111,0.271,0.167,0.558,0.167,0.863
			c0,0.41-0.095,0.784-0.284,1.122s-0.449,0.604-0.779,0.798s-0.695,0.291-1.095,0.291c-0.4,0-0.765-0.097-1.095-0.291
			c-0.33-0.194-0.59-0.46-0.779-0.798c-0.189-0.338-0.284-0.712-0.284-1.122c0-0.304,0.056-0.592,0.167-0.863
			c0.111-0.271,0.263-0.503,0.454-0.697C100.219,20.662,100.448,20.509,100.714,20.397z M102.226,20.807
			c-0.208-0.09-0.428-0.134-0.661-0.134c-0.233,0-0.453,0.045-0.661,0.134c-0.208,0.09-0.386,0.211-0.536,0.366
			s-0.267,0.339-0.354,0.555c-0.087,0.216-0.13,0.445-0.13,0.688c0,0.326,0.074,0.625,0.221,0.895
			c0.147,0.271,0.35,0.484,0.607,0.639c0.258,0.155,0.542,0.233,0.852,0.233c0.31,0,0.594-0.078,0.852-0.233
			c0.258-0.155,0.46-0.368,0.607-0.639c0.147-0.271,0.221-0.569,0.221-0.895c0-0.243-0.043-0.472-0.13-0.688
			c-0.087-0.216-0.204-0.401-0.354-0.555S102.434,20.897,102.226,20.807z"/>
		<path fill="#494949" d="M107.59,22.702v-0.439h1.609v1.615c-0.199,0.239-0.445,0.423-0.739,0.554
			c-0.293,0.13-0.622,0.195-0.986,0.195c-0.3,0-0.583-0.057-0.849-0.17c-0.266-0.113-0.493-0.268-0.683-0.464
			s-0.34-0.431-0.449-0.706s-0.164-0.567-0.164-0.877c0-0.414,0.093-0.787,0.279-1.121c0.186-0.333,0.443-0.593,0.77-0.78
			c0.327-0.187,0.693-0.281,1.097-0.281c0.4,0,0.763,0.093,1.089,0.278c0.326,0.185,0.552,0.427,0.678,0.725l-0.409,0.2
			c-0.111-0.231-0.29-0.415-0.536-0.552c-0.246-0.137-0.52-0.206-0.822-0.206c-0.32,0-0.607,0.074-0.861,0.221
			s-0.452,0.353-0.594,0.618s-0.213,0.564-0.213,0.898c0,0.251,0.042,0.486,0.125,0.706c0.084,0.22,0.198,0.408,0.345,0.564
			s0.323,0.279,0.53,0.369c0.207,0.09,0.43,0.134,0.669,0.134c0.505,0,0.925-0.151,1.259-0.454v-1.027H107.59z"/>
		<path fill="#494949" d="M110.446,20.288h0.561l1.248,1.895l1.23-1.895h0.543l-1.546,2.361v1.919h-0.466v-1.919L110.446,20.288z"/>
	</g>
	<g>
		<path fill="#494949" d="M26.921,14.172l0.12,1.431c-0.313,0.117-0.659,0.175-1.038,0.175c-1.122,0-2.029-0.346-2.721-1.038
			c-0.692-0.692-1.038-1.65-1.038-2.874V6.316h-2.164V4.797h2.164V1.792h1.617v3.005h3.059v1.519h-3.059v5.486
			c0,0.772,0.22,1.379,0.661,1.819c0.44,0.441,1.003,0.661,1.688,0.661C26.466,14.281,26.703,14.245,26.921,14.172z"/>
		<path fill="#494949" d="M29.549,6.201c1.082-1.089,2.413-1.634,3.994-1.634c1.581,0,2.916,0.545,4.005,1.634
			c1.089,1.089,1.634,2.431,1.634,4.026s-0.545,2.937-1.634,4.026c-1.089,1.089-2.424,1.634-4.005,1.634s-2.912-0.545-3.994-1.634
			c-1.082-1.089-1.623-2.431-1.623-4.026C27.927,8.632,28.468,7.29,29.549,6.201z M33.543,6.119c-1.129,0-2.08,0.394-2.852,1.18
			c-0.772,0.787-1.158,1.763-1.158,2.928c0,1.159,0.386,2.134,1.158,2.928c0.772,0.794,1.723,1.191,2.852,1.191
			c1.129,0,2.083-0.399,2.863-1.197c0.779-0.798,1.169-1.772,1.169-2.923c0-1.158-0.388-2.132-1.164-2.923
			C35.636,6.514,34.68,6.119,33.543,6.119z"/>
		<path fill="#494949" d="M49.944,4.797h1.639v10.872h-1.639v-1.704c-0.343,0.576-0.863,1.04-1.563,1.393s-1.446,0.53-2.24,0.53
			c-1.348,0-2.431-0.443-3.251-1.328c-0.819-0.885-1.229-2.052-1.229-3.501V4.797H43.3v6.042c0,1.049,0.292,1.888,0.874,2.519
			c0.583,0.63,1.351,0.945,2.305,0.945c0.721,0,1.395-0.176,2.021-0.53c0.627-0.353,1.107-0.825,1.442-1.415L49.944,4.797
			L49.944,4.797z"/>
		<path fill="#494949" d="M64.575,13.09c-0.43,0.859-1.078,1.541-1.945,2.043c-0.867,0.503-1.847,0.754-2.939,0.754
			c-1.581,0-2.916-0.545-4.005-1.634c-1.089-1.089-1.634-2.431-1.634-4.026c0-1.049,0.248-2.007,0.743-2.874
			c0.495-0.867,1.174-1.548,2.038-2.043s1.816-0.743,2.858-0.743c1.034,0,1.963,0.239,2.786,0.716
			c0.823,0.477,1.417,1.112,1.781,1.906L62.87,7.921c-0.233-0.546-0.639-0.983-1.218-1.311c-0.579-0.328-1.233-0.492-1.961-0.492
			c-1.151,0-2.11,0.394-2.879,1.18c-0.769,0.787-1.153,1.763-1.153,2.928c0,1.159,0.388,2.134,1.164,2.928
			c0.776,0.794,1.732,1.191,2.868,1.191c0.772,0,1.466-0.169,2.082-0.508c0.616-0.339,1.079-0.81,1.393-1.415L64.575,13.09z"/>
		<path fill="#494949" d="M72.189,4.567c1.348,0,2.431,0.441,3.251,1.322c0.819,0.881,1.229,2.054,1.229,3.518v6.261H75.03V9.626
			c0-1.049-0.292-1.888-0.874-2.519s-1.351-0.945-2.305-0.945c-0.721,0-1.397,0.173-2.027,0.519
			c-0.63,0.346-1.109,0.814-1.437,1.404v7.583h-1.639V0h1.639v6.49c0.357-0.59,0.88-1.058,1.568-1.404
			C70.644,4.74,71.388,4.567,72.189,4.567z"/>
		<path fill="#494949" d="M84.777,0c1.486,0,2.835,0.336,4.048,1.005c1.213,0.671,2.165,1.599,2.858,2.786
			c0.692,1.188,1.038,2.513,1.038,3.977c0,1.494-0.346,2.843-1.038,4.048c-0.692,1.206-1.645,2.149-2.858,2.83
			c-1.213,0.681-2.563,1.022-4.048,1.022h-5.365V0H84.777z M85.007,12.489c1.238,0,2.264-0.448,3.076-1.344
			c0.812-0.896,1.218-2.021,1.218-3.377c0-1.333-0.402-2.431-1.207-3.294c-0.805-0.863-1.834-1.295-3.087-1.295h-2.284v9.309H85.007
			z"/>
		<path fill="#494949" d="M99.703,4.458c0.794,0,1.543,0.146,2.246,0.437c0.703,0.292,1.307,0.69,1.814,1.197
			c0.507,0.507,0.907,1.114,1.202,1.825c0.295,0.71,0.443,1.466,0.443,2.267c0,1.071-0.25,2.043-0.748,2.917
			c-0.499,0.874-1.184,1.557-2.054,2.049c-0.87,0.492-1.837,0.737-2.901,0.737c-1.624,0-2.983-0.543-4.075-1.628
			s-1.639-2.444-1.639-4.075s0.546-2.994,1.639-4.087C96.72,5.004,98.079,4.458,99.703,4.458z M99.703,7.474
			c-0.75,0-1.375,0.257-1.874,0.77c-0.499,0.514-0.748,1.16-0.748,1.939c0,0.757,0.25,1.395,0.748,1.912
			c0.499,0.517,1.123,0.776,1.874,0.776c0.736,0,1.355-0.258,1.857-0.776c0.503-0.517,0.754-1.154,0.754-1.912
			c0-0.779-0.25-1.426-0.748-1.939C101.067,7.73,100.446,7.474,99.703,7.474z"/>
		<path fill="#494949" d="M113.874,12.74l0.164,2.797c-0.422,0.204-0.962,0.306-1.617,0.306c-1.311,0-2.369-0.395-3.174-1.185
			c-0.805-0.791-1.208-1.885-1.208-3.284V7.682h-2.043V4.677h2.043V1.792h3.158v2.885h2.699v3.005h-2.699v3.529
			c0,0.503,0.164,0.909,0.492,1.218c0.328,0.31,0.728,0.464,1.202,0.464C113.256,12.893,113.584,12.842,113.874,12.74z"/>
	</g>
	<g>
		<path fill="#41B983" d="M15.646,7.114c0,0.335-0.274,0.61-0.61,0.61H0.61C0.274,7.723,0,7.449,0,7.114V0.676
			c0-0.335,0.274-0.61,0.61-0.61h14.427c0.335,0,0.61,0.274,0.61,0.61V7.114z"/>
		<path fill="#41B983" d="M15.646,16.857c-4.371-0.118-7.879-3.696-7.879-8.095H0c0,8.69,6.985,15.747,15.646,15.866V16.857z"/>
		<path fill="#41B983" d="M15.646,9.371c0-0.335-0.274-0.61-0.61-0.61h-1.759H9.598h-0.61c0,3.725,2.961,6.757,6.658,6.875v-0.61
			l0,0V9.371L15.646,9.371z"/>
	</g>
</g>
</svg>
