<?xml version="1.0" encoding="utf-8"?>
<!-- Generator: Adobe Illustrator 17.0.0, SVG Export Plug-In . SVG Version: 6.00 Build 0)  -->
<!DOCTYPE svg PUBLIC "-//W3C//DTD SVG 1.1//EN" "http://www.w3.org/Graphics/SVG/1.1/DTD/svg11.dtd">
<svg version="1.1" id="Layer_1" xmlns="http://www.w3.org/2000/svg" xmlns:xlink="http://www.w3.org/1999/xlink" x="0px" y="0px"
	 width="329.906px" height="238.32px" viewBox="0 0 329.906 238.32" enable-background="new 0 0 329.906 238.32"
	 xml:space="preserve">
<circle fill="#D7F9E6" cx="290.332" cy="50.147" r="31.155"/>
<path fill="#6ED3A3" d="M264.072,47.879l-1.79,2.149c-0.597,0.597-0.358,1.432,0.119,2.029c1.79,1.671,3.7,3.104,5.849,4.058
	c0.716,0.239,1.432,0.119,1.91-0.597l1.432-2.387c0.358-0.597,0.955-0.836,1.671-0.716c1.074,0.239,2.149,0.597,3.223,0.597
	c0.597,0,1.074,0.358,1.194,1.074l0.955,2.984c0.239,0.716,0.836,1.074,1.671,1.074c2.387-0.239,4.894-0.955,7.043-2.029
	c0.716-0.239,0.955-1.074,0.836-1.791l-0.955-2.865c-0.119-0.597,0-1.194,0.597-1.671c0.358-0.239,0.955-0.716,1.313-1.074
	c0.358-0.358,0.836-0.716,1.074-1.074c0.358-0.358,1.074-0.597,1.671-0.358l2.865,1.194c0.716,0.239,1.432,0,1.79-0.597
	c1.313-2.029,2.268-4.297,2.865-6.804c0.119-0.716-0.239-1.432-0.955-1.791l-2.865-1.074c-0.597-0.239-0.955-0.836-0.955-1.313
	c0-1.194,0-2.268-0.239-3.462c-0.119-0.716,0.239-1.313,0.836-1.671l2.387-1.074c0.716-0.239,1.074-1.074,0.836-1.91
	c-0.836-2.268-2.029-4.417-3.462-6.326c-0.358-0.597-1.194-0.716-1.79-0.358l-2.984,1.432c-0.597,0.239-1.074,0.119-1.432-0.119
	c-0.836-0.716-1.79-1.313-2.626-1.791c-0.597-0.239-0.836-0.955-0.716-1.671l0.716-2.745c0.119-0.716-0.239-1.432-0.955-1.791
	c-2.268-0.836-4.775-1.194-7.162-1.194c-0.716,0-1.313,0.597-1.432,1.194l-0.597,3.104c-0.119,0.597-0.597,1.074-1.074,1.194
	c-1.074,0.119-2.149,0.597-3.104,0.955c-0.597,0.239-1.194,0-1.671-0.358l-1.91-2.149c-0.597-0.597-1.313-0.716-1.91-0.239
	c-0.955,0.716-1.91,1.313-2.865,2.149s-1.79,1.671-2.626,2.626c-0.358,0.597-0.358,1.432,0.119,2.029l2.029,2.029
	c0.358,0.358,0.597,1.194,0.239,1.791c-0.597,1.074-1.074,2.149-1.313,3.223c-0.119,0.716-0.836,1.074-1.313,1.074h-2.865
	c-0.836,0-1.313,0.597-1.432,1.313c-0.239,2.387-0.119,4.894,0.358,7.162c0.119,0.716,0.836,1.194,1.671,1.194l2.865-0.239
	c0.716,0,1.194,0.239,1.432,0.955c0.358,1.074,1.074,2.149,1.79,3.104c0.119,0.119,0.119,0.955-0.239,1.313l0,0L264.072,47.879z
	 M266.698,35.584c2.865-14.085,21.247-13.011,22.441,1.313v0.358c-2.865,14.085-21.247,13.011-22.441-1.313V35.584z"/>
<path fill="#08175C" d="M292.72,75.095l-1.313,1.79c-0.358,0.597-0.358,1.194,0.119,1.671c1.313,1.313,2.984,2.387,4.655,3.342
	c0.597,0.239,1.194,0.119,1.432-0.358l1.194-1.91c0.239-0.358,0.836-0.716,1.313-0.597c0.836,0.239,1.79,0.358,2.626,0.597
	c0.358,0,0.836,0.358,0.955,0.836l0.836,2.387c0.119,0.597,0.716,0.955,1.194,0.836c1.91-0.239,3.939-0.836,5.73-1.671
	c0.597-0.239,0.836-0.836,0.716-1.432l-0.716-2.268c-0.119-0.597,0-0.955,0.358-1.313c0.358-0.239,0.716-0.597,1.074-0.836
	c0.239-0.239,0.716-0.597,0.955-0.955c0.239-0.358,0.836-0.358,1.313-0.239l2.268,0.955c0.597,0.239,1.194,0,1.432-0.597
	c1.074-1.671,1.79-3.462,2.268-5.372c0.119-0.597-0.119-1.194-0.716-1.313l-2.268-0.955c-0.358-0.119-0.836-0.716-0.716-1.074
	c0-0.955,0-1.91-0.119-2.865c-0.119-0.597,0.119-1.074,0.716-1.194l2.029-0.955c0.597-0.239,0.836-0.955,0.716-1.432
	c-0.716-1.91-1.671-3.462-2.865-5.133c-0.358-0.358-0.955-0.597-1.432-0.358l-2.387,1.074c-0.358,0.119-0.955,0.119-1.194-0.119
	c-0.716-0.597-1.313-1.074-2.149-1.432c-0.358-0.239-0.716-0.836-0.597-1.313l0.597-2.149c0.119-0.597-0.119-1.194-0.836-1.313
	c-1.91-0.716-3.82-0.955-5.73-0.955c-0.597,0-1.074,0.358-1.194,0.955l-0.358,2.387c-0.119,0.358-0.358,0.836-0.955,0.955
	c-0.836,0.119-1.79,0.358-2.626,0.716c-0.358,0.119-1.074,0-1.313-0.358l-1.432-1.791c-0.358-0.358-1.074-0.597-1.671-0.239
	c-0.836,0.597-1.671,1.074-2.268,1.791c-0.716,0.716-1.313,1.313-2.029,2.149c-0.358,0.358-0.358,1.194,0.119,1.671l1.671,1.671
	c0.358,0.358,0.358,0.955,0.119,1.313c-0.358,0.836-0.836,1.79-1.074,2.745c-0.119,0.597-0.597,0.836-1.074,0.836h-2.268
	c-0.597,0-1.074,0.358-1.194,1.074c-0.239,1.91-0.119,3.939,0.239,5.849c0.119,0.597,0.716,0.955,1.194,0.955l2.268-0.239
	c0.597,0,0.955,0.239,1.194,0.716c0.358,0.836,0.836,1.79,1.313,2.626c0.239,0.716,0.119,1.194-0.119,1.671l0,0V75.095z
	 M294.749,65.187c2.268-11.34,17.07-10.385,18.144,1.074v0.358c-2.268,11.34-17.07,10.385-18.144-1.074V65.187z"/>
<path fill="#FFE2DF" d="M172.785,0C117.201,0,72.201,45.072,72.201,100.584V238.32l57.168-47.016
	c13.104,6.264,27.792,9.792,43.416,9.792c55.584,0,100.584-45.072,100.584-100.584C273.369,44.928,228.297,0,172.785,0z"/>
<path fill="#FF8F7E" d="M266.313,201.096l-110.664-1.008l15.048-65.88c1.08-4.464,14.472-7.704,19.008-7.704h81
	c6.336,0,11.016,5.904,9.648,12.96l-14.04,61.56V201.096z"/>
<path fill="#FFADA1" d="M190.425,150.912c0,0-28.368,25.2-32.688,24.624c-4.248-0.576-65.448-57.024-65.448-57.024l-13.824-12.096
	c0,0,21.384-5.616,37.152,10.872c0,0,20.232,19.44,29.736,17.064c9.432-2.304,33.696-23.904,33.696-23.904l11.448,40.464l0,0
	H190.425z"/>
<path fill="#FFFFFF" d="M191.721,97.416c0,0,21.528-11.592,33.912,0.072c13.464,12.6-27.36,58.032-39.744,60.984l-14.904-42.912
	L191.721,97.416z"/>
<path fill="#FFFFFF" d="M231.753,93.024c0,0,25.848,3.096,27.936,29.232c2.016,26.136-5.04,79.344-5.04,79.344l-86.832-0.72
	l12.096-69.696c0.36-6.696,8.496-32.256,10.8-32.472l36.216-9.072l4.896,3.456l0,0L231.753,93.024z"/>
<path fill="#FFB3A8" d="M258.753,157.752c0,0-4.968,41.4-8.568,43.848c-3.6,2.376-83.664-0.144-83.664-0.144l-17.064-0.648
	c0,0,12.312-18.936,34.992-16.992c0,0,28.8,0.72,34.416-7.272c5.544-7.992,9.36-24.624,9.36-24.624l30.456,5.904l0,0
	L258.753,157.752z M218.217,70.128l4.464,17.28l-16.272,17.856l-2.52-6.624l-2.088-15.552l12.96-15.408c0,0,2.52,1.224,2.952,1.8
	C218.073,69.984,218.217,70.128,218.217,70.128z"/>
<g>
	<path fill="#00042B" d="M214.432,67.68l-12.96,15.408l1.296,10.656c0,0,11.88-7.56,10.8-18.576L214.432,67.68z M214.432,67.68
		L214.432,67.68L214.432,67.68z"/>
</g>
<g>
	<path fill="#06002B" d="M218.536,60.264c0,0-2.376,0.72-3.456,3.528l-9.864-16.056c0,0-6.264-2.448-8.568,0.432
		s-4.32,4.752-6.336,4.464c-2.016-0.216-4.32-2.88-4.32-2.88s-13.536-9.864-10.296-13.104c3.24-3.24,26.928-3.168,33.912-0.792
		c6.696,2.304,10.872,5.616,9.792,24.624l-0.864-0.144L218.536,60.264L218.536,60.264z M218.536,60.264L218.536,60.264
		L218.536,60.264z"/>
</g>
<path fill="#FFB3A8" d="M214.792,61.704c0.36,0.432,0.864,0.432,1.152,0c0.864-1.44,2.88-3.6,4.896,0.72
	c2.664,5.904-4.176,6.552-4.464,7.416c-0.648,1.944-2.592,8.496-7.2,12.024c-2.808,2.088-7.344,3.528-11.52,1.152
	s-5.112,0.216-12.312-34.2c0,0,2.304,2.52,4.752,2.808c2.448,0.144,5.256-3.744,7.56-5.04c1.944-1.08,5.544-3.6,9.792,2.88
	c1.944,2.88,5.616,9.864,7.344,12.312l0,0V61.704z"/>
<path fill="#FFFFFF" d="M191.608,73.296c0,0,2.304,0.504,7.2-1.224c0,0-1.8,4.248-3.888,4.104c-2.232-0.216-3.24-2.88-3.24-2.88l0,0
	H191.608z"/>
<path fill="#CF5F36" d="M219.688,62.208l-2.88,3.456C216.808,65.664,216.592,59.112,219.688,62.208z"/>
<g>
	<path fill="#00042B" d="M193.912,65.088c0.144,0.72,0.648,1.296,1.008,1.152c0.432-0.072,0.504-0.72,0.36-1.584
		c-0.144-0.72-0.648-1.296-1.008-1.152C193.84,63.576,193.696,64.296,193.912,65.088z M189.376,65.52
		c0.144,0.72,0.648,1.296,1.008,1.152c0.432-0.072,0.504-0.72,0.36-1.584c-0.144-0.72-0.648-1.296-1.008-1.152
		C189.304,64.08,189.232,64.728,189.376,65.52z M198.088,57.816c1.152,0.432-1.152-2.304-2.592-2.304s-2.592,1.008-2.592,2.304
		c0,0,2.448-1.08,5.256,0l0,0H198.088z M187.72,60.12c1.368-0.576,2.448-0.576,2.448-0.576c-0.504-1.08-1.728-1.584-2.952-1.296
		L187.72,60.12z M187.72,60.12L187.72,60.12L187.72,60.12z"/>
</g>
<path fill="#CF5F36" d="M191.392,64.872l-0.648,6.192c0,0.072,0.072,0.144,0.144,0.144l2.448-0.432c0.072,0,0.144-0.072,0.072-0.144
	l-1.872-5.76C191.608,64.728,191.392,64.728,191.392,64.872z"/>
<path fill="#010A0F" d="M204.897,117.936c0,1.008-0.792,1.728-1.728,1.728c-1.008,0-1.728-0.792-1.728-1.728
	c0-1.008,0.792-1.728,1.728-1.728C204.033,116.208,204.897,117,204.897,117.936z M204.753,125.208c0,1.008-0.792,1.728-1.728,1.728
	c-1.008,0-1.728-0.792-1.728-1.728c0-1.008,0.792-1.728,1.728-1.728C203.889,123.408,204.753,124.2,204.753,125.208z"/>
<path fill="#FFFFFF" d="M222.64,81.072l7.344,10.8l-23.112,23.688l-2.52-13.032l18.288-21.384V81.072z M201.976,89.568
	c-0.432,0.144-4.752,5.904-4.752,5.904l0.36,17.712l6.696-11.736l-2.304-11.808l0,0V89.568z"/>
<polyline fill="none" stroke="#010A0F" stroke-width="3" points="231.964,92.808 208.132,115.992 205.252,102.456 198.484,113.112 
	196.9,96.336 "/>
<polygon fill="#010A0F" points="197.512,113.184 205.432,106.416 204.352,102.456 "/>
<polygon fill="#010A0F" points="142.905,195.408 198.705,195.408 198.705,201.888 142.905,201.888 "/>
<path fill="#6ED3A3" d="M198.705,195.408h-36.504l2.88,6.552h33.624L198.705,195.408L198.705,195.408z M73.065,201.96h88.056
	l-21.312-60.624H51.825L73.065,201.96z"/>
<path fill="#010A0F" d="M101.289,173.304c0-3.024,2.448-5.544,5.544-5.544c3.024,0,5.544,2.448,5.544,5.544
	c0,3.024-2.448,5.544-5.544,5.544S101.289,176.4,101.289,173.304z"/>
<line fill="none" stroke="#010A0F" stroke-width="19.8307" x1="73.569" y1="201.96" x2="270.489" y2="201.96"/>
<path fill="#FFE2DF" d="M327.096,18.001c0,2.304-1.872,4.104-4.104,4.104c-2.304,0-4.104-1.872-4.104-4.104
	c0-2.304,1.872-4.104,4.104-4.104C325.224,13.825,327.096,15.697,327.096,18.001z M294.12,124.993c0,1.944-1.584,3.528-3.528,3.528
	s-3.528-1.584-3.528-3.528s1.584-3.528,3.528-3.528S294.12,123.049,294.12,124.993z"/>
<path fill="none" stroke="#FFE2DF" stroke-width="13.2205" d="M90.777,22.896c0,3.528-2.88,6.336-6.336,6.336
	c-3.528,0-6.336-2.88-6.336-6.336c0-3.528,2.88-6.336,6.336-6.336C87.969,16.56,90.777,19.44,90.777,22.896z"/>
<circle fill="#FFE2DF" cx="287.064" cy="88.237" r="3.528"/>
<circle fill="#D7F9E6" cx="37.726" cy="90.073" r="26.928"/>
<path fill="#6ED3A3" d="M70.846,88.921l-27.792-0.36c-1.008,0-1.872,0.576-2.376,1.44l-2.664,5.4
	c-0.144,0.36-0.576,0.144-0.576-0.144l-0.144-6.768l0.216-27.072c0-2.664,2.232-4.824,4.824-4.752l28.8,0.36
	c2.664,0,4.824,2.232,4.752,4.824L75.67,84.097c0.072,2.808-2.088,4.896-4.752,4.824l0,0L70.846,88.921L70.846,88.921z"/>
<path fill="#FFFFFF" d="M51.121,66.696c0,1.656-1.296,2.952-2.952,2.88c-1.656,0-2.952-1.296-2.88-2.952
	c0-1.656,1.296-2.952,2.952-2.88C49.897,63.744,51.121,65.04,51.121,66.696z"/>
<path fill="#08175C" d="M70.777,67.272l-15.552-0.144c-0.432,0-0.792-0.432-0.792-0.792c0-0.432,0.432-0.792,0.792-0.792
	l15.552,0.144c0.432,0,0.792,0.432,0.792,0.792C71.569,66.912,71.137,67.272,70.777,67.272z M70.777,69.648l-10.656-0.072
	c-0.432,0-0.792-0.432-0.792-0.792c0-0.432,0.432-0.792,0.792-0.792l10.656,0.144c0.432,0,0.792,0.432,0.792,0.792
	C71.569,69.36,71.137,69.648,70.777,69.648z"/>
<path fill="#FFFFFF" d="M54.43,78.985l-8.136-0.072c-0.504,0-0.792-0.432-0.792-0.864c0-0.504,0.432-0.792,0.864-0.792l8.136,0.072
	c0.504,0,0.792,0.432,0.792,0.864C55.222,78.625,54.862,78.985,54.43,78.985z M59.974,81.793l-13.896-0.144
	c-0.432,0-0.792-0.432-0.792-0.792c0-0.432,0.432-0.792,0.792-0.792l13.896,0.144c0.432,0,0.792,0.432,0.792,0.792
	C60.766,81.505,60.334,81.793,59.974,81.793z"/>
<path fill="#FFE2DF" d="M5.83,99.361l22.68,0.216c0.792,0,1.584,0.504,1.872,1.224l2.016,4.464c0.072,0.216,0.504,0.144,0.504-0.072
	l0.216-5.544l0.216-22.104c0-2.088-1.728-3.888-3.816-3.888l-23.4-0.216c-2.088,0-3.888,1.728-3.888,3.816L2.086,95.473
	C1.942,97.561,3.742,99.361,5.83,99.361z"/>
<path fill="#58B788" d="M17.134,94.321l-4.248-0.072c-0.144,0-0.216-0.144-0.216-0.36l0.072-7.344c0-0.144,0.144-0.216,0.36-0.216
	l4.248,0.072c0.144,0,0.216,0.144,0.216,0.36l-0.072,7.344C17.494,94.177,17.35,94.321,17.134,94.321z"/>
<path fill="#409166" d="M11.878,94.249l-4.32-0.072c-0.144,0-0.216-0.072-0.216-0.216l0.072-4.32c0-0.144,0.072-0.216,0.216-0.216
	l4.32,0.072c0.144,0,0.216,0.072,0.216,0.216l-0.072,4.32C12.094,94.177,12.022,94.249,11.878,94.249z"/>
<path fill="#6ED3A3" d="M22.462,94.393l-4.248-0.072c-0.144,0-0.216-0.144-0.216-0.36l0.072-11.664c0-0.144,0.144-0.216,0.36-0.216
	l4.248,0.072c0.144,0,0.216,0.144,0.216,0.36l-0.072,11.664C22.822,94.249,22.678,94.393,22.462,94.393z"/>
<path fill="#8FE5BA" d="M27.07,94.393h-3.456c-0.216,0-0.504-0.216-0.504-0.504l0.144-14.832c0-0.216,0.216-0.504,0.504-0.504h3.456
	c0.216,0,0.504,0.216,0.504,0.504l-0.144,14.832C27.574,94.249,27.43,94.393,27.07,94.393z"/>
<path fill="none" stroke="#D7F9E6" stroke-width="13.0472" d="M132.177,218.88c0,3.024-2.448,5.4-5.4,5.4
	c-3.024,0-5.4-2.448-5.4-5.4s2.448-5.4,5.4-5.4S132.177,215.928,132.177,218.88z"/>
<path fill="#D7F9E6" d="M22.392,197.064c0,1.872-1.584,3.312-3.312,3.312c-1.8,0-3.312-1.584-3.312-3.312
	c0-1.872,1.584-3.312,3.312-3.312C20.88,193.752,22.392,195.192,22.392,197.064z"/>
</svg>
