<?xml version="1.0" encoding="utf-8"?>
<!-- Generator: Adobe Illustrator 17.0.0, SVG Export Plug-In . SVG Version: 6.00 Build 0)  -->
<!DOCTYPE svg PUBLIC "-//W3C//DTD SVG 1.1//EN" "http://www.w3.org/Graphics/SVG/1.1/DTD/svg11.dtd">
<svg version="1.1" id="Layer_1" xmlns="http://www.w3.org/2000/svg" xmlns:xlink="http://www.w3.org/1999/xlink" x="0px" y="0px"
	 width="100px" height="100px" viewBox="0 0 100 100" enable-background="new 0 0 100 100" xml:space="preserve">
<g>
	<path fill="#41B983" d="M81.853,28.693c0,1.365-1.118,2.483-2.482,2.483H20.63c-1.365,0-2.483-1.117-2.483-2.483V2.482
		C18.147,1.117,19.265,0,20.63,0h58.74c1.365,0,2.482,1.117,2.482,2.482V28.693z"/>
	<path fill="#41B983" d="M81.853,68.362c-17.798-0.48-32.08-15.047-32.08-32.96H18.147c0,35.38,28.44,64.115,63.705,64.598V68.362z"
		/>
	<path fill="#41B983" d="M81.853,37.885c0-1.365-1.118-2.483-2.482-2.483h-7.162h-14.98h-2.483c0,15.167,12.057,27.513,27.108,27.99
		V60.91l0,0V37.885L81.853,37.885z"/>
</g>
</svg>
