<?xml version="1.0" encoding="utf-8"?>
<!-- Generator: Adobe Illustrator 17.0.0, SVG Export Plug-In . SVG Version: 6.00 Build 0)  -->
<!DOCTYPE svg PUBLIC "-//W3C//DTD SVG 1.1//EN" "http://www.w3.org/Graphics/SVG/1.1/DTD/svg11.dtd">
<svg version="1.1" id="Layer_1" xmlns="http://www.w3.org/2000/svg" xmlns:xlink="http://www.w3.org/1999/xlink" x="0px" y="0px"
	 width="150px" height="63.841px" viewBox="1957.385 833.077 150 63.841" enable-background="new 1957.385 833.077 150 63.841"
	 xml:space="preserve">
<g>
	<g>
		<rect x="2033.594" y="856.608" fill="#632AD2" width="3.61" height="17.961"/>
	</g>
	<g>
		<polygon fill="#632AD2" points="2054.763,856.563 2054.763,874.903 2054.596,874.903 2043.933,864.53 2043.933,874.591 
			2040.323,874.591 2040.323,856.274 2040.502,856.274 2051.142,866.624 2051.142,856.563 		"/>
	</g>
	<g>
		<path fill="#632AD2" d="M2070.272,869.12c0,2.652-1.905,5.448-5.604,5.448h-6.785v-17.961h4.902c3.187,0,5.214,2.34,5.214,4.758
			c0,1.905-1.259,3.086-1.694,3.086C2068.033,864.452,2070.272,866.235,2070.272,869.12 M2061.481,860.118v3.51h1.46
			c0.858,0,1.693-0.735,1.693-1.783c0-1.014-0.791-1.727-1.626-1.727H2061.481z M2066.752,868.864c0-1.036-0.713-2.072-2.429-2.072
			h-2.841v4.256h2.852C2065.504,871.048,2066.752,870.246,2066.752,868.864"/>
	</g>
	<g>
		<path fill="#632AD2" d="M2071.52,865.611c0-5.159,4.2-9.37,9.337-9.37c5.136,0,9.348,4.212,9.348,9.37
			c0,5.114-4.211,9.303-9.359,9.303C2075.721,874.914,2071.52,870.725,2071.52,865.611 M2086.551,865.588
			c0-3.142-2.563-5.705-5.705-5.705c-3.131,0-5.682,2.563-5.682,5.705c0,3.12,2.552,5.671,5.682,5.671
			C2083.988,871.259,2086.551,868.708,2086.551,865.588"/>
	</g>
	<g>
		<polygon fill="#632AD2" points="2095.007,865.243 2089.882,856.608 2094.026,856.608 2097.102,862.045 2100.166,856.608 
			2104.31,856.608 2099.174,865.232 2104.645,874.569 2100.5,874.569 2097.091,868.541 2093.692,874.569 2089.547,874.569 		"/>
	</g>
	<g>
		<polygon fill="#632AD2" points="2051.187,878.208 2051.187,896.615 2047.577,896.615 2047.577,888.793 2042.407,896.314 
			2042.385,896.314 2037.204,888.793 2037.204,896.615 2033.594,896.615 2033.594,878.208 2033.794,878.208 2042.396,890.074 
			2050.986,878.208 		"/>
	</g>
	<g>
		<polygon fill="#632AD2" points="2057.916,882.208 2057.916,885.718 2064.111,885.718 2064.111,889.317 2057.916,889.317 
			2057.916,893.027 2065.136,893.027 2065.136,896.615 2054.306,896.615 2054.306,878.654 2065.136,878.654 2065.136,882.208 		"/>
	</g>
	<g>
		<path fill="#632AD2" d="M2082.361,887.657c0,5.571-3.543,8.958-9.348,8.958h-5.226v-17.949l5.226-0.011
			C2078.818,878.643,2082.361,882.052,2082.361,887.657 M2078.718,887.645c0-3.365-2.162-5.415-5.716-5.415h-1.615v10.785h1.649
			C2076.567,893.016,2078.718,890.988,2078.718,887.645"/>
	</g>
	<g>
		<rect x="2084.701" y="878.654" fill="#632AD2" width="3.61" height="17.961"/>
	</g>
	<g>
		<path fill="#632AD2" d="M2102.338,894.108h-7.187l-1.148,2.507h-3.9l8.579-18.406h0.111l8.59,18.406h-3.911L2102.338,894.108z
			 M2100.934,891.033l-2.184-4.802l-2.195,4.802H2100.934z"/>
	</g>
	<g>
		<path fill="#632AD2" d="M2024.656,896.904h-49.253c-3.15,0-5.712-2.499-5.712-5.571v-35.726l30.339,18.487l30.339-18.487v35.725
			C2030.368,894.404,2027.805,896.904,2024.656,896.904z M1975.226,891.307c0.021,0.022,0.078,0.061,0.177,0.061h49.253
			c0.099,0,0.156-0.039,0.177-0.061v-25.845l-24.803,15.114l-24.803-15.114V891.307z"/>
	</g>
	<g>
		<path fill="#632AD2" d="M2027.142,862.568h-5.535v-22.157c0-0.992-0.853-1.798-1.901-1.798h-38.428
			c-1.048,0-1.901,0.807-1.901,1.798v13.698h-5.535v-13.698c0-4.044,3.336-7.334,7.437-7.334h38.428c4.1,0,7.437,3.29,7.437,7.334
			V862.568z"/>
	</g>
	<g>
		<rect x="1966.297" y="891.383" fill="#632AD2" width="57.615" height="5.535"/>
	</g>
	<g>
		<rect x="1957.385" y="891.621" fill="#33E2A0" width="6.884" height="5.081"/>
	</g>
</g>
</svg>
